<?xml version="1.0" encoding="utf-8"?>
<!-- Generator: Adobe Illustrator 15.1.0, SVG Export Plug-In . SVG Version: 6.00 Build 0)  -->
<!DOCTYPE svg PUBLIC "-//W3C//DTD SVG 1.1//EN" "http://www.w3.org/Graphics/SVG/1.1/DTD/svg11.dtd">
<svg version="1.1" id="Layer_1" xmlns="http://www.w3.org/2000/svg" xmlns:xlink="http://www.w3.org/1999/xlink" x="0px" y="0px"
	 width="792px" height="612px" viewBox="0 0 792 612" enable-background="new 0 0 792 612" xml:space="preserve">
<circle fill="#283479" cx="306.089" cy="278.062" r="147.5"/>
<circle fill="none" stroke="#FFFFFF" stroke-width="4" stroke-miterlimit="10" cx="306.089" cy="278.062" r="131.5"/>
<g>
	<path fill="#FFFFFF" d="M239.688,291.666c1.86-0.7,3.936,0.242,4.636,2.102l2.746,7.299c0.7,1.86-0.241,3.936-2.102,4.636
		l-40.06,15.069c-1.86,0.7-3.937-0.24-4.637-2.102l-2.745-7.299c-0.7-1.86,0.241-3.937,2.102-4.637L239.688,291.666z"/>
	<path fill="#FFFFFF" d="M232.822,273.414c1.86-0.7,3.936,0.242,4.636,2.102l2.746,7.299c0.7,1.86-0.241,3.936-2.101,4.636
		l-40.061,15.07c-1.861,0.7-3.937-0.241-4.637-2.101l-2.745-7.299c-0.7-1.86,0.241-3.937,2.102-4.637L232.822,273.414z"/>
	<path fill="#FFFFFF" d="M225.956,255.163c1.861-0.7,3.936,0.242,4.636,2.102l2.746,7.299c0.7,1.861-0.241,3.936-2.101,4.636
		l-40.061,15.07c-1.861,0.7-3.937-0.241-4.637-2.101l-2.746-7.299c-0.7-1.86,0.241-3.937,2.102-4.637L225.956,255.163z"/>
</g>
<g>
	<path fill="#FFFFFF" d="M370.972,290.287c-1.783-0.878-3.941-0.143-4.819,1.641l-3.442,6.997c-0.878,1.784-0.143,3.941,1.64,4.819
		l38.404,18.896c1.783,0.878,3.941,0.144,4.819-1.641l3.442-6.996c0.878-1.783,0.144-3.941-1.641-4.819L370.972,290.287z"/>
	<path fill="#FFFFFF" d="M379.582,272.79c-1.784-0.878-3.942-0.143-4.82,1.641l-3.443,6.998c-0.878,1.783-0.142,3.941,1.641,4.819
		l38.403,18.896c1.784,0.878,3.942,0.144,4.82-1.64l3.442-6.997c0.878-1.784,0.144-3.942-1.641-4.82L379.582,272.79z"/>
	<path fill="#FFFFFF" d="M388.19,255.293c-1.784-0.878-3.941-0.143-4.819,1.641l-3.443,6.998c-0.878,1.784-0.142,3.941,1.641,4.818
		l38.403,18.896c1.784,0.878,3.942,0.144,4.819-1.64l3.443-6.998c0.878-1.783,0.144-3.941-1.641-4.819L388.19,255.293z"/>
</g>
<path fill="none" stroke="#FFFFFF" stroke-width="7" stroke-miterlimit="10" d="M233.636,282.978c-0.001,0,75.965-41.972,143.633,0"
	/>
<path fill="none" d="M202.52,259.001c0,0,112.319-48.896,209.865,0"/>
<text transform="matrix(0.9735 -0.2285 0.2285 0.9735 230.1514 249.1641)"><tspan x="0" y="0" fill="#FFFFFF" stroke="#FFFFFF" stroke-miterlimit="10" font-family="'Voltaire'" font-size="69">B</tspan><tspan x="30.162" y="0.019" fill="#FFFFFF" stroke="#FFFFFF" stroke-miterlimit="10" font-family="'Voltaire'" font-size="69" rotate="5.022">E</tspan><tspan x="56.622" y="1.967" fill="#FFFFFF" stroke="#FFFFFF" stroke-miterlimit="10" font-family="'Voltaire'" font-size="69" rotate="11.135">N</tspan><tspan x="92.521" y="9.196" fill="#FFFFFF" stroke="#FFFFFF" stroke-miterlimit="10" font-family="'Voltaire'" font-size="69" rotate="18.145">C</tspan><tspan x="118.182" y="17.189" fill="#FFFFFF" stroke="#FFFFFF" stroke-miterlimit="10" font-family="'Voltaire'" font-size="69" rotate="25.835">H</tspan></text>
<path fill="none" d="M209.52,352c0,0,101.426,88,189.953,0"/>
<text transform="matrix(0.8771 0.4803 -0.4803 0.8771 223.5127 363.0361)"><tspan x="0" y="0" fill="#FFFFFF" stroke="#FFFFFF" stroke-miterlimit="10" font-family="'Voltaire'" font-size="69">P</tspan><tspan x="38.362" y="-0.577" fill="#FFFFFF" stroke="#FFFFFF" stroke-miterlimit="10" font-family="'Voltaire'" font-size="69" rotate="-12.406">R</tspan><tspan x="77.83" y="-10.62" fill="#FFFFFF" stroke="#FFFFFF" stroke-miterlimit="10" font-family="'Voltaire'" font-size="69" rotate="-28.654">E</tspan><tspan x="110.847" y="-30.579" fill="#FFFFFF" stroke="#FFFFFF" stroke-miterlimit="10" font-family="'Voltaire'" font-size="69" rotate="-47.981">S</tspan><tspan x="135.361" y="-60.336" fill="#FFFFFF" stroke="#FFFFFF" stroke-miterlimit="10" font-family="'Voltaire'" font-size="69" rotate="-65.483">S</tspan></text>
</svg>
